<?xml version="1.0" encoding="UTF-8"?>
<svg width="14px" height="14px" viewBox="0 0 14 14" version="1.1" xmlns="http://www.w3.org/2000/svg" xmlns:xlink="http://www.w3.org/1999/xlink">
    <!-- Generator: Sketch 47.1 (45422) - http://www.bohemiancoding.com/sketch -->
    <title>Group 12</title>
    <desc>Created with Sketch.</desc>
    <defs></defs>
    <g id="Symbols" stroke="none" stroke-width="1" fill="none" fill-rule="evenodd">
        <g id="dashboard-menu" transform="translate(-52.000000, -76.000000)" fill="#000000">
            <g id="Group">
                <g transform="translate(50.000000, 26.000000)">
                    <g id="Group-12" transform="translate(2.000000, 50.000000)">
                        <path d="M3.5,1.16666667 C4.78683333,1.16666667 5.83333333,2.21316667 5.83333333,3.5 C5.83333333,4.78683333 4.78683333,5.83333333 3.5,5.83333333 C2.21316667,5.83333333 1.16666667,4.78683333 1.16666667,3.5 C1.16666667,2.21316667 2.21316667,1.16666667 3.5,1.16666667 Z M6.9475,2.91666667 L12.25,2.91666667 C12.572,2.91666667 12.8333333,3.17858333 12.8333333,3.5 C12.8333333,3.82141667 12.572,4.08333333 12.25,4.08333333 L6.9475,4.08333333 C6.97958333,3.89316667 7,3.69891667 7,3.5 C7,3.30108333 6.97958333,3.10683333 6.9475,2.91666667 Z M3.5,7 C4.79208333,7 5.92025,6.29416667 6.52633333,5.25 L12.25,5.25 C13.2148333,5.25 14,4.46483333 14,3.5 C14,2.53516667 13.2148333,1.75 12.25,1.75 L6.52633333,1.75 C5.92025,0.705833333 4.79208333,0 3.5,0 C1.56975,0 0,1.56975 0,3.5 C0,5.43025 1.56975,7 3.5,7 L3.5,7 Z" id="Fill-44"></path>
                        <path d="M10.5,12.8333333 C9.21316667,12.8333333 8.16666667,11.7868333 8.16666667,10.5 C8.16666667,9.21316667 9.21316667,8.16666667 10.5,8.16666667 C11.7868333,8.16666667 12.8333333,9.21316667 12.8333333,10.5 C12.8333333,11.7868333 11.7868333,12.8333333 10.5,12.8333333 Z M7.0525,11.0833333 L1.75,11.0833333 C1.428,11.0833333 1.16666667,10.8214167 1.16666667,10.5 C1.16666667,10.1785833 1.428,9.91666667 1.75,9.91666667 L7.0525,9.91666667 C7.02041667,10.1068333 7,10.3010833 7,10.5 C7,10.6989167 7.02041667,10.8931667 7.0525,11.0833333 Z M10.5,7 C9.20791667,7 8.07975,7.70583333 7.47366667,8.75 L1.75,8.75 C0.785166667,8.75 0,9.53516667 0,10.5 C0,11.4648333 0.785166667,12.25 1.75,12.25 L7.47366667,12.25 C8.07975,13.2941667 9.20791667,14 10.5,14 C12.43025,14 14,12.43025 14,10.5 C14,8.56975 12.43025,7 10.5,7 L10.5,7 Z" id="Fill-45"></path>
                    </g>
                </g>
            </g>
        </g>
    </g>
</svg>