<?xml version="1.0" encoding="UTF-8"?>
<svg width="12px" height="13px" viewBox="0 0 12 13" version="1.1" xmlns="http://www.w3.org/2000/svg" xmlns:xlink="http://www.w3.org/1999/xlink">
    <!-- Generator: Sketch 47.1 (45422) - http://www.bohemiancoding.com/sketch -->
    <title></title>
    <desc>Created with Sketch.</desc>
    <defs></defs>
    <g id="Symbols" stroke="none" stroke-width="1" fill="none" fill-rule="evenodd">
        <g id="dashboard-menu" transform="translate(-263.000000, -76.000000)" fill="#000000">
            <g id="Group">
                <g transform="translate(50.000000, 26.000000)">
                    <path d="M219.883929,55.0267857 C219.883929,55.5044667 219.713171,55.9129447 219.371652,56.2522321 C219.030132,56.5915196 218.620538,56.7611607 218.142857,56.7611607 C217.665176,56.7611607 217.255582,56.5915196 216.914062,56.2522321 C216.572543,55.9129447 216.401786,55.5044667 216.401786,55.0267857 C216.401786,54.5446404 216.572543,54.1339303 216.914062,53.7946429 C217.255582,53.4553554 217.665176,53.2857143 218.142857,53.2857143 C218.620538,53.2857143 219.030132,53.4553554 219.371652,53.7946429 C219.713171,54.1339303 219.883929,54.5446404 219.883929,55.0267857 Z M219.5625,56.5 C219.767858,56.5 219.952008,56.537946 220.114955,56.6138393 C220.277903,56.6897325 220.41183,56.7957582 220.516741,56.9319196 C220.621652,57.068081 220.709821,57.2176331 220.78125,57.3805804 C220.852679,57.5435276 220.90625,57.7243294 220.941964,57.9229911 C220.977679,58.1216528 221.003348,58.3058027 221.018973,58.4754464 C221.034598,58.6450901 221.042411,58.8214277 221.042411,59.0044643 C221.042411,59.3035729 220.954242,59.5680792 220.777902,59.7979911 C220.601562,60.0279029 220.366073,60.1428571 220.071429,60.1428571 L216.214286,60.1428571 C215.919641,60.1428571 215.684153,60.0279029 215.507812,59.7979911 C215.331472,59.5680792 215.243304,59.3035729 215.243304,59.0044643 C215.243304,58.7901775 215.253348,58.5814742 215.273438,58.3783482 C215.293527,58.1752222 215.334821,57.9553583 215.397321,57.71875 C215.459822,57.4821417 215.541294,57.2779026 215.641741,57.1060268 C215.742188,56.9341509 215.882812,56.7901792 216.063616,56.6741071 C216.244421,56.5580351 216.453124,56.5 216.689732,56.5 L216.723214,56.5 C216.754464,56.5178572 216.825892,56.5613836 216.9375,56.6305804 C217.049108,56.6997771 217.128348,56.7466517 217.175223,56.7712054 C217.222098,56.7957591 217.295758,56.8337051 217.396205,56.8850446 C217.496652,56.9363842 217.579241,56.9720981 217.643973,56.9921875 C217.708706,57.0122769 217.78683,57.032366 217.878348,57.0524554 C217.969867,57.0725447 218.058035,57.0825893 218.142857,57.0825893 C218.227679,57.0825893 218.315848,57.0725447 218.407366,57.0524554 C218.498884,57.032366 218.577009,57.0122769 218.641741,56.9921875 C218.706474,56.9720981 218.789062,56.9363842 218.889509,56.8850446 C218.989956,56.8337051 219.063616,56.7957591 219.110491,56.7712054 C219.157366,56.7466517 219.236607,56.6997771 219.348214,56.6305804 C219.459822,56.5613836 219.53125,56.5178572 219.5625,56.5 Z M224.142857,54.7857143 C224.142857,54.8437503 224.121652,54.893973 224.079241,54.9363839 C224.03683,54.9787949 223.986607,55 223.928571,55 L223.285714,55 L223.285714,55.8571429 L223.928571,55.8571429 C223.986607,55.8571429 224.03683,55.878348 224.079241,55.9207589 C224.121652,55.9631699 224.142857,56.0133926 224.142857,56.0714286 L224.142857,57.3571429 C224.142857,57.4151789 224.121652,57.4654016 224.079241,57.5078125 C224.03683,57.5502234 223.986607,57.5714286 223.928571,57.5714286 L223.285714,57.5714286 L223.285714,58.4285714 L223.928571,58.4285714 C223.986607,58.4285714 224.03683,58.4497766 224.079241,58.4921875 C224.121652,58.5345984 224.142857,58.5848211 224.142857,58.6428571 L224.142857,59.9285714 C224.142857,59.9866074 224.121652,60.0368301 224.079241,60.0792411 C224.03683,60.121652 223.986607,60.1428571 223.928571,60.1428571 L223.285714,60.1428571 L223.285714,61.6428571 C223.285714,61.9375015 223.180805,62.1897311 222.970982,62.3995536 C222.76116,62.609376 222.50893,62.7142857 222.214286,62.7142857 L214.071429,62.7142857 C213.776784,62.7142857 213.524555,62.609376 213.314732,62.3995536 C213.10491,62.1897311 213,61.9375015 213,61.6428571 L213,51.7857143 C213,51.49107 213.10491,51.2388403 213.314732,51.0290179 C213.524555,50.8191954 213.776784,50.7142857 214.071429,50.7142857 L222.214286,50.7142857 C222.50893,50.7142857 222.76116,50.8191954 222.970982,51.0290179 C223.180805,51.2388403 223.285714,51.49107 223.285714,51.7857143 L223.285714,53.2857143 L223.928571,53.2857143 C223.986607,53.2857143 224.03683,53.3069194 224.079241,53.3493304 C224.121652,53.3917413 224.142857,53.441964 224.142857,53.5 L224.142857,54.7857143 Z M222.428571,61.6428571 L222.428571,51.7857143 C222.428571,51.7276783 222.407366,51.6774556 222.364955,51.6350446 C222.322544,51.5926337 222.272322,51.5714286 222.214286,51.5714286 L214.071429,51.5714286 C214.013393,51.5714286 213.96317,51.5926337 213.920759,51.6350446 C213.878348,51.6774556 213.857143,51.7276783 213.857143,51.7857143 L213.857143,61.6428571 C213.857143,61.7008931 213.878348,61.7511159 213.920759,61.7935268 C213.96317,61.8359377 214.013393,61.8571429 214.071429,61.8571429 L222.214286,61.8571429 C222.272322,61.8571429 222.322544,61.8359377 222.364955,61.7935268 C222.407366,61.7511159 222.428571,61.7008931 222.428571,61.6428571 Z" id=""></path>
                </g>
            </g>
        </g>
    </g>
</svg>