<?xml version="1.0" encoding="UTF-8"?>
<svg width="9px" height="5px" viewBox="0 0 9 5" version="1.1" xmlns="http://www.w3.org/2000/svg" xmlns:xlink="http://www.w3.org/1999/xlink">
    <!-- Generator: Sketch 47.1 (45422) - http://www.bohemiancoding.com/sketch -->
    <title></title>
    <desc>Created with Sketch.</desc>
    <defs></defs>
    <g id="Pages" stroke="none" stroke-width="1" fill="none" fill-rule="evenodd">
        <g id="Product-Listing-(category)" transform="translate(-1202.000000, -853.000000)" fill="#4A4A4A">
            <g id="sort-by_normal" transform="translate(932.000000, 835.000000)">
                <path d="M278.320312,18.5703125 C278.372396,18.6223961 278.398438,18.6822913 278.398438,18.75 C278.398438,18.8177087 278.372396,18.8776039 278.320312,18.9296875 L274.679688,22.5703125 C274.627604,22.6223961 274.567709,22.6484375 274.5,22.6484375 C274.432291,22.6484375 274.372396,22.6223961 274.320312,22.5703125 L270.679688,18.9296875 C270.627604,18.8776039 270.601562,18.8177087 270.601562,18.75 C270.601562,18.6822913 270.627604,18.6223961 270.679688,18.5703125 L271.070312,18.1796875 C271.122396,18.1276039 271.182291,18.1015625 271.25,18.1015625 C271.317709,18.1015625 271.377604,18.1276039 271.429688,18.1796875 L274.5,21.25 L277.570312,18.1796875 C277.622396,18.1276039 277.682291,18.1015625 277.75,18.1015625 C277.817709,18.1015625 277.877604,18.1276039 277.929688,18.1796875 L278.320312,18.5703125 Z" id=""></path>
            </g>
        </g>
    </g>
</svg>