<?xml version="1.0" encoding="UTF-8"?>
<svg width="4px" height="8px" viewBox="0 0 4 8" version="1.1" xmlns="http://www.w3.org/2000/svg" xmlns:xlink="http://www.w3.org/1999/xlink">
    <!-- Generator: Sketch 47.1 (45422) - http://www.bohemiancoding.com/sketch -->
    <title>cart copy 3</title>
    <desc>Created with Sketch.</desc>
    <defs></defs>
    <g id="Pages" stroke="none" stroke-width="1" fill="none" fill-rule="evenodd">
        <g id="Product-Listing-(category)" transform="translate(-1045.000000, -2666.000000)" fill="#4A4A4A">
            <g id="pagination" transform="translate(508.000000, 2640.000000)">
                <path d="M540.729911,29.4129464 C540.814733,29.4977683 540.857143,29.5982137 540.857143,29.7142857 C540.857143,29.8303577 540.814733,29.9308031 540.729911,30.015625 L537.729911,33.015625 C537.645089,33.1004469 537.544643,33.1428571 537.428571,33.1428571 C537.312499,33.1428571 537.212054,33.1004469 537.127232,33.015625 C537.04241,32.9308031 537,32.8303577 537,32.7142857 L537,26.7142857 C537,26.5982137 537.04241,26.4977683 537.127232,26.4129464 C537.212054,26.3281246 537.312499,26.2857143 537.428571,26.2857143 C537.544643,26.2857143 537.645089,26.3281246 537.729911,26.4129464 L540.729911,29.4129464 Z" id="cart-copy-3"></path>
            </g>
        </g>
    </g>
</svg>