<?xml version="1.0" encoding="UTF-8"?>
<svg width="5px" height="8px" viewBox="0 0 5 8" version="1.1" xmlns="http://www.w3.org/2000/svg" xmlns:xlink="http://www.w3.org/1999/xlink">
    <!-- Generator: Sketch 47.1 (45422) - http://www.bohemiancoding.com/sketch -->
    <title>cart copy 2</title>
    <desc>Created with Sketch.</desc>
    <defs></defs>
    <g id="Pages" stroke="none" stroke-width="1" fill="none" fill-rule="evenodd">
        <g id="Product-Listing-(category)" transform="translate(-536.000000, -2666.000000)" fill="#4A4A4A">
            <g id="pagination" transform="translate(508.000000, 2640.000000)">
                <path d="M32.2857143,26.7142857 L32.2857143,32.7142857 C32.2857143,32.8303577 32.243304,32.9308031 32.1584821,33.015625 C32.0736603,33.1004469 31.9732149,33.1428571 31.8571429,33.1428571 C31.7410708,33.1428571 31.6406254,33.1004469 31.5558036,33.015625 L28.5558036,30.015625 C28.4709817,29.9308031 28.4285714,29.8303577 28.4285714,29.7142857 C28.4285714,29.5982137 28.4709817,29.4977683 28.5558036,29.4129464 L31.5558036,26.4129464 C31.6406254,26.3281246 31.7410708,26.2857143 31.8571429,26.2857143 C31.9732149,26.2857143 32.0736603,26.3281246 32.1584821,26.4129464 C32.243304,26.4977683 32.2857143,26.5982137 32.2857143,26.7142857 Z" id="cart-copy-2"></path>
            </g>
        </g>
    </g>
</svg>