<?xml version="1.0" encoding="UTF-8"?>
<svg width="6px" height="10px" viewBox="0 0 6 10" version="1.1" xmlns="http://www.w3.org/2000/svg" xmlns:xlink="http://www.w3.org/1999/xlink">
    <!-- Generator: Sketch 47.1 (45422) - http://www.bohemiancoding.com/sketch -->
    <title></title>
    <desc>Created with Sketch.</desc>
    <defs></defs>
    <g id="Pages" stroke="none" stroke-width="1" fill="none" fill-rule="evenodd">
        <g id="Homepage" transform="translate(-1173.000000, -566.000000)" fill="#FFFFFF">
            <g id="first-screen">
                <g id="arrows_slider" transform="translate(1028.000000, 520.000000)">
                    <path d="M150.223214,50.6517857 C150.282738,50.7113098 150.3125,50.7797615 150.3125,50.8571429 C150.3125,50.9345242 150.282738,51.0029759 150.223214,51.0625 L146.0625,55.2232143 C146.002976,55.2827384 145.934524,55.3125 145.857143,55.3125 C145.779762,55.3125 145.71131,55.2827384 145.651786,55.2232143 L145.205357,54.7767857 C145.145833,54.7172616 145.116071,54.6488099 145.116071,54.5714286 C145.116071,54.4940472 145.145833,54.4255955 145.205357,54.3660714 L148.714286,50.8571429 L145.205357,47.3482143 C145.145833,47.2886902 145.116071,47.2202385 145.116071,47.1428571 C145.116071,47.0654758 145.145833,46.9970241 145.205357,46.9375 L145.651786,46.4910714 C145.71131,46.4315473 145.779762,46.4017857 145.857143,46.4017857 C145.934524,46.4017857 146.002976,46.4315473 146.0625,46.4910714 L150.223214,50.6517857 Z" id=""></path>
                </g>
            </g>
        </g>
    </g>
</svg>