<?xml version="1.0" encoding="UTF-8"?>
<svg width="6px" height="10px" viewBox="0 0 6 10" version="1.1" xmlns="http://www.w3.org/2000/svg" xmlns:xlink="http://www.w3.org/1999/xlink">
    <!-- Generator: Sketch 47.1 (45422) - http://www.bohemiancoding.com/sketch -->
    <title></title>
    <desc>Created with Sketch.</desc>
    <defs></defs>
    <g id="Pages" stroke="none" stroke-width="1" fill="none" fill-rule="evenodd">
        <g id="Homepage" transform="translate(-1075.000000, -566.000000)" fill="#FFFFFF">
            <g id="first-screen">
                <g id="arrows_slider" transform="translate(1028.000000, 520.000000)">
                    <path d="M52.5089286,46.9375 C52.5684527,46.9970241 52.5982143,47.0654758 52.5982143,47.1428571 C52.5982143,47.2202385 52.5684527,47.2886902 52.5089286,47.3482143 L49,50.8571429 L52.5089286,54.3660714 C52.5684527,54.4255955 52.5982143,54.4940472 52.5982143,54.5714286 C52.5982143,54.6488099 52.5684527,54.7172616 52.5089286,54.7767857 L52.0625,55.2232143 C52.0029759,55.2827384 51.9345242,55.3125 51.8571429,55.3125 C51.7797615,55.3125 51.7113098,55.2827384 51.6517857,55.2232143 L47.4910714,51.0625 C47.4315473,51.0029759 47.4017857,50.9345242 47.4017857,50.8571429 C47.4017857,50.7797615 47.4315473,50.7113098 47.4910714,50.6517857 L51.6517857,46.4910714 C51.7113098,46.4315473 51.7797615,46.4017857 51.8571429,46.4017857 C51.9345242,46.4017857 52.0029759,46.4315473 52.0625,46.4910714 L52.5089286,46.9375 Z" id=""></path>
                </g>
            </g>
        </g>
    </g>
</svg>