<?xml version="1.0" encoding="UTF-8"?>
<svg width="14px" height="11px" viewBox="0 0 14 11" version="1.1" xmlns="http://www.w3.org/2000/svg" xmlns:xlink="http://www.w3.org/1999/xlink">
    <!-- Generator: Sketch 47.1 (45422) - http://www.bohemiancoding.com/sketch -->
    <title>Group 10</title>
    <desc>Created with Sketch.</desc>
    <defs></defs>
    <g id="Symbols" stroke="none" stroke-width="1" fill="none" fill-rule="evenodd">
        <g id="dashboard-menu" transform="translate(-50.000000, -32.000000)" fill="#000000">
            <g id="Group">
                <g transform="translate(50.000000, 26.000000)">
                    <g id="Group-10" transform="translate(0.000000, 6.000000)">
                        <path d="M10.1856291,2.28083333 L11,1.449 C9.84607004,0.54425 8.40793774,0 6.8448249,0 C3.06858625,0 0,3.14008333 0,7 L1.13795071,7 C1.13795071,3.7835 3.69805447,1.16666667 6.8448249,1.16666667 C8.09291829,1.16666667 9.24513619,1.58316667 10.1856291,2.28083333" id="Fill-14"></path>
                        <path d="M7.25084407,9.84873681 C6.63017382,9.84873681 6.12542203,9.33239527 6.12542203,8.69747362 C6.12542203,8.06255197 6.63017382,7.54621043 7.25084407,7.54621043 C7.87095161,7.54621043 8.3762661,8.06255197 8.3762661,8.69747362 C8.3762661,9.33239527 7.87095161,9.84873681 7.25084407,9.84873681 Z M12.874578,7.54621043 L14,7.54621043 C14,6.14454749 13.5858447,4.84246882 12.8813305,3.75279821 L13.8002376,2.81451871 L13.0040015,2 L8.38470677,6.72017909 C8.05045642,6.51870803 7.6661248,6.39494723 7.25084407,6.39494723 C6.00950356,6.39494723 5,7.42763032 5,8.69747362 C5,9.96731692 6.00950356,11 7.25084407,11 C8.49218457,11 9.50168813,9.96731692 9.50168813,8.69747362 C9.50168813,8.2709306 9.38014255,7.87604733 9.18206828,7.53354653 L12.0631487,4.58919092 C12.5740903,5.45436521 12.874578,6.46344739 12.874578,7.54621043 L12.874578,7.54621043 Z" id="Fill-15"></path>
                    </g>
                </g>
            </g>
        </g>
    </g>
</svg>