<?xml version="1.0" encoding="UTF-8"?>
<svg width="8px" height="18px" viewBox="0 0 8 18" version="1.1" xmlns="http://www.w3.org/2000/svg" xmlns:xlink="http://www.w3.org/1999/xlink">
    <!-- Generator: Sketch 47.1 (45422) - http://www.bohemiancoding.com/sketch -->
    <title></title>
    <desc>Created with Sketch.</desc>
    <defs></defs>
    <g id="Pages" stroke="none" stroke-width="1" fill="none" fill-rule="evenodd">
        <g id="Track-Order-V1" transform="translate(-1032.000000, -373.000000)" fill="#000000">
            <g id="text-block-2" transform="translate(855.000000, 332.000000)">
                <path d="M184.857143,56.6428571 L184.857143,58.2142857 C184.857143,58.4270844 184.779391,58.6112343 184.623884,58.7667411 C184.468377,58.9222478 184.284227,59 184.071429,59 L177.785714,59 C177.572916,59 177.388766,58.9222478 177.233259,58.7667411 C177.077752,58.6112343 177,58.4270844 177,58.2142857 L177,56.6428571 C177,56.4300585 177.077752,56.2459085 177.233259,56.0904018 C177.388766,55.9348951 177.572916,55.8571429 177.785714,55.8571429 L178.571429,55.8571429 L178.571429,51.1428571 L177.785714,51.1428571 C177.572916,51.1428571 177.388766,51.0651049 177.233259,50.9095982 C177.077752,50.7540915 177,50.5699415 177,50.3571429 L177,48.7857143 C177,48.5729156 177.077752,48.3887657 177.233259,48.2332589 C177.388766,48.0777522 177.572916,48 177.785714,48 L182.5,48 C182.712799,48 182.896949,48.0777522 183.052455,48.2332589 C183.207962,48.3887657 183.285714,48.5729156 183.285714,48.7857143 L183.285714,55.8571429 L184.071429,55.8571429 C184.284227,55.8571429 184.468377,55.9348951 184.623884,56.0904018 C184.779391,56.2459085 184.857143,56.4300585 184.857143,56.6428571 Z M183.285714,42.5 L183.285714,44.8571429 C183.285714,45.0699415 183.207962,45.2540915 183.052455,45.4095982 C182.896949,45.5651049 182.712799,45.6428571 182.5,45.6428571 L179.357143,45.6428571 C179.144344,45.6428571 178.960194,45.5651049 178.804688,45.4095982 C178.649181,45.2540915 178.571429,45.0699415 178.571429,44.8571429 L178.571429,42.5 C178.571429,42.2872013 178.649181,42.1030514 178.804688,41.9475446 C178.960194,41.7920379 179.144344,41.7142857 179.357143,41.7142857 L182.5,41.7142857 C182.712799,41.7142857 182.896949,41.7920379 183.052455,41.9475446 C183.207962,42.1030514 183.285714,42.2872013 183.285714,42.5 Z" id=""></path>
            </g>
        </g>
    </g>
</svg>