<?xml version="1.0" encoding="UTF-8"?>
<svg width="16px" height="17px" viewBox="0 0 16 17" version="1.1" xmlns="http://www.w3.org/2000/svg" xmlns:xlink="http://www.w3.org/1999/xlink">
    <!-- Generator: Sketch 47.1 (45422) - http://www.bohemiancoding.com/sketch -->
    <title></title>
    <desc>Created with Sketch.</desc>
    <defs>
        <linearGradient x1="0%" y1="0%" x2="101.310864%" y2="100.317621%" id="linearGradient-1">
            <stop stop-color="#F9ED32" offset="0%"></stop>
            <stop stop-color="#EE2A7B" offset="52.1918003%"></stop>
            <stop stop-color="#002AFF" offset="100%"></stop>
        </linearGradient>
    </defs>
    <g id="Symbols" stroke="none" stroke-width="1" fill="none" fill-rule="evenodd">
        <g id="footer" transform="translate(-720.000000, -237.000000)" fill="url(#linearGradient-1)">
            <g id="footer-copy">
                <g id="hover-icons" transform="translate(545.000000, 236.000000)">
                    <path d="M184.81808,11.3895089 C185.320315,10.8872743 185.571429,10.2812535 185.571429,9.57142857 C185.571429,8.86160359 185.320315,8.25558287 184.81808,7.75334821 C184.315846,7.25111356 183.709825,7 183,7 C182.290175,7 181.684154,7.25111356 181.18192,7.75334821 C180.679685,8.25558287 180.428571,8.86160359 180.428571,9.57142857 C180.428571,10.2812535 180.679685,10.8872743 181.18192,11.3895089 C181.684154,11.8917436 182.290175,12.1428571 183,12.1428571 C183.709825,12.1428571 184.315846,11.8917436 184.81808,11.3895089 Z M185.802455,6.76897321 C186.572548,7.53906635 186.957589,8.47320879 186.957589,9.57142857 C186.957589,10.6696483 186.572548,11.6037908 185.802455,12.3738839 C185.032362,13.1439771 184.09822,13.5290179 183,13.5290179 C181.90178,13.5290179 180.967638,13.1439771 180.197545,12.3738839 C179.427452,11.6037908 179.042411,10.6696483 179.042411,9.57142857 C179.042411,8.47320879 179.427452,7.53906635 180.197545,6.76897321 C180.967638,5.99888008 181.90178,5.61383929 183,5.61383929 C184.09822,5.61383929 185.032362,5.99888008 185.802455,6.76897321 Z M187.771205,4.80022321 C187.95201,4.98102769 188.042411,5.19865944 188.042411,5.453125 C188.042411,5.70759056 187.95201,5.92522231 187.771205,6.10602679 C187.590401,6.28683126 187.372769,6.37723214 187.118304,6.37723214 C186.863838,6.37723214 186.646206,6.28683126 186.465402,6.10602679 C186.284597,5.92522231 186.194196,5.70759056 186.194196,5.453125 C186.194196,5.19865944 186.284597,4.98102769 186.465402,4.80022321 C186.646206,4.61941874 186.863838,4.52901786 187.118304,4.52901786 C187.372769,4.52901786 187.590401,4.61941874 187.771205,4.80022321 Z M183.763393,3.24330357 L183,3.24330357 C182.953125,3.24330357 182.696989,3.24162948 182.231585,3.23828125 C181.766181,3.23493302 181.412948,3.23493302 181.171875,3.23828125 C180.930802,3.24162948 180.607703,3.25167402 180.202567,3.26841518 C179.797431,3.28515633 179.452568,3.31863814 179.167969,3.36886161 C178.883369,3.41908507 178.643974,3.48102642 178.449777,3.5546875 C178.114954,3.68861674 177.820314,3.88281123 177.565848,4.13727679 C177.311383,4.39174234 177.117188,4.68638225 176.983259,5.02120536 C176.909598,5.21540276 176.847657,5.45479768 176.797433,5.73939732 C176.74721,6.02399696 176.713728,6.36885958 176.696987,6.77399554 C176.680245,7.17913149 176.670201,7.50223094 176.666853,7.74330357 C176.663504,7.98437621 176.663504,8.33760928 176.666853,8.80301339 C176.670201,9.26841751 176.671875,9.52455334 176.671875,9.57142857 C176.671875,9.61830381 176.670201,9.87443964 176.666853,10.3398438 C176.663504,10.8052479 176.663504,11.1584809 176.666853,11.3995536 C176.670201,11.6406262 176.680245,11.9637257 176.696987,12.3688616 C176.713728,12.7739976 176.74721,13.1188602 176.797433,13.4034598 C176.847657,13.6880595 176.909598,13.9274544 176.983259,14.1216518 C177.117188,14.4564749 177.311383,14.7511148 177.565848,15.0055804 C177.820314,15.2600459 178.114954,15.4542404 178.449777,15.5881696 C178.643974,15.6618307 178.883369,15.7237721 179.167969,15.7739955 C179.452568,15.824219 179.797431,15.8577008 180.202567,15.874442 C180.607703,15.8911831 180.930802,15.9012277 181.171875,15.9045759 C181.412948,15.9079241 181.766181,15.9079241 182.231585,15.9045759 C182.696989,15.9012277 182.953125,15.8995536 183,15.8995536 C183.046875,15.8995536 183.303011,15.9012277 183.768415,15.9045759 C184.233819,15.9079241 184.587052,15.9079241 184.828125,15.9045759 C185.069198,15.9012277 185.392297,15.8911831 185.797433,15.874442 C186.202569,15.8577008 186.547432,15.824219 186.832031,15.7739955 C187.116631,15.7237721 187.356026,15.6618307 187.550223,15.5881696 C187.885046,15.4542404 188.179686,15.2600459 188.434152,15.0055804 C188.688617,14.7511148 188.882812,14.4564749 189.016741,14.1216518 C189.090402,13.9274544 189.152343,13.6880595 189.202567,13.4034598 C189.25279,13.1188602 189.286272,12.7739976 189.303013,12.3688616 C189.319755,11.9637257 189.329799,11.6406262 189.333147,11.3995536 C189.336496,11.1584809 189.336496,10.8052479 189.333147,10.3398438 C189.329799,9.87443964 189.328125,9.61830381 189.328125,9.57142857 C189.328125,9.52455334 189.329799,9.26841751 189.333147,8.80301339 C189.336496,8.33760928 189.336496,7.98437621 189.333147,7.74330357 C189.329799,7.50223094 189.319755,7.17913149 189.303013,6.77399554 C189.286272,6.36885958 189.25279,6.02399696 189.202567,5.73939732 C189.152343,5.45479768 189.090402,5.21540276 189.016741,5.02120536 C188.882812,4.68638225 188.688617,4.39174234 188.434152,4.13727679 C188.179686,3.88281123 187.885046,3.68861674 187.550223,3.5546875 C187.356026,3.48102642 187.116631,3.41908507 186.832031,3.36886161 C186.547432,3.31863814 186.202569,3.28515633 185.797433,3.26841518 C185.392297,3.25167402 185.069198,3.24162948 184.828125,3.23828125 C184.587052,3.23493302 184.232145,3.23660711 183.763393,3.24330357 Z M190.664062,6.38727679 C190.697545,6.97656545 190.714286,8.03793876 190.714286,9.57142857 C190.714286,11.1049184 190.697545,12.1662917 190.664062,12.7555804 C190.597098,14.1484445 190.181923,15.2265587 189.418527,15.9899554 C188.65513,16.753352 187.577016,17.1685265 186.184152,17.2354911 C185.594863,17.2689734 184.53349,17.2857143 183,17.2857143 C181.46651,17.2857143 180.405137,17.2689734 179.815848,17.2354911 C178.422984,17.1685265 177.34487,16.753352 176.581473,15.9899554 C175.818077,15.2265587 175.402902,14.1484445 175.335937,12.7555804 C175.302455,12.1662917 175.285714,11.1049184 175.285714,9.57142857 C175.285714,8.03793876 175.302455,6.97656545 175.335937,6.38727679 C175.402902,4.99441268 175.818077,3.91629846 176.581473,3.15290179 C177.34487,2.38950511 178.422984,1.97433069 179.815848,1.90736607 C180.405137,1.87388376 181.46651,1.85714286 183,1.85714286 C184.53349,1.85714286 185.594863,1.87388376 186.184152,1.90736607 C187.577016,1.97433069 188.65513,2.38950511 189.418527,3.15290179 C190.181923,3.91629846 190.597098,4.99441268 190.664062,6.38727679 Z" id=""></path>
                </g>
            </g>
        </g>
    </g>
</svg>