<?xml version="1.0" encoding="UTF-8"?>
<svg width="15px" height="18px" viewBox="0 0 15 18" version="1.1" xmlns="http://www.w3.org/2000/svg" xmlns:xlink="http://www.w3.org/1999/xlink">
    <!-- Generator: Sketch 47.1 (45422) - http://www.bohemiancoding.com/sketch -->
    <title></title>
    <desc>Created with Sketch.</desc>
    <defs></defs>
    <g id="Pages" stroke="none" stroke-width="1" fill="none" fill-rule="evenodd">
        <g id="Track-Order-V1" transform="translate(-633.000000, -373.000000)" fill="#000000">
            <g id="text-block-1" transform="translate(455.000000, 332.000000)">
                <path d="M181.928571,49.5714286 L188.214286,49.5714286 L188.214286,47.2142857 C188.214286,46.3467219 187.907369,45.6060299 187.293527,44.9921875 C186.679684,44.3783451 185.938992,44.0714286 185.071429,44.0714286 C184.203865,44.0714286 183.463173,44.3783451 182.84933,44.9921875 C182.235488,45.6060299 181.928571,46.3467219 181.928571,47.2142857 L181.928571,49.5714286 Z M192.142857,50.75 L192.142857,57.8214286 C192.142857,58.1488112 192.028275,58.4270822 191.799107,58.65625 C191.569939,58.8854178 191.291668,59 190.964286,59 L179.178571,59 C178.851189,59 178.572918,58.8854178 178.34375,58.65625 C178.114582,58.4270822 178,58.1488112 178,57.8214286 L178,50.75 C178,50.4226174 178.114582,50.1443464 178.34375,49.9151786 C178.572918,49.6860108 178.851189,49.5714286 179.178571,49.5714286 L179.571429,49.5714286 L179.571429,47.2142857 C179.571429,45.7083258 180.111602,44.415184 181.191964,43.3348214 C182.272327,42.2544589 183.565469,41.7142857 185.071429,41.7142857 C186.577388,41.7142857 187.87053,42.2544589 188.950893,43.3348214 C190.031255,44.415184 190.571429,45.7083258 190.571429,47.2142857 L190.571429,49.5714286 L190.964286,49.5714286 C191.291668,49.5714286 191.569939,49.6860108 191.799107,49.9151786 C192.028275,50.1443464 192.142857,50.4226174 192.142857,50.75 Z" id=""></path>
            </g>
        </g>
    </g>
</svg>