<?xml version="1.0" encoding="UTF-8"?>
<svg width="13px" height="10px" viewBox="0 0 13 10" version="1.1" xmlns="http://www.w3.org/2000/svg" xmlns:xlink="http://www.w3.org/1999/xlink">
    <!-- Generator: Sketch 47.1 (45422) - http://www.bohemiancoding.com/sketch -->
    <title></title>
    <desc>Created with Sketch.</desc>
    <defs></defs>
    <g id="Symbols" stroke="none" stroke-width="1" fill="none" fill-rule="evenodd">
        <g id="dashboard-menu" transform="translate(-1105.000000, -84.000000)" fill="#000000">
            <g id="Group-13">
                <g transform="translate(973.000000, 20.000000)">
                    <path d="M137,73.25 C137,73.2708334 137.002604,73.3229163 137.007812,73.40625 C137.013021,73.4895837 137.014323,73.5585935 137.011719,73.6132812 C137.009115,73.667969 137.001302,73.7291663 136.988281,73.796875 C136.97526,73.8645837 136.949219,73.9153644 136.910156,73.9492188 C136.871094,73.9830731 136.817709,74 136.75,74 L134.25,74 C133.630205,74 133.100263,73.7799501 132.660156,73.3398438 C132.22005,72.8997374 132,72.3697948 132,71.75 L132,66.25 C132,65.6302052 132.22005,65.1002626 132.660156,64.6601562 C133.100263,64.2200499 133.630205,64 134.25,64 L136.75,64 C136.817709,64 136.876302,64.0247393 136.925781,64.0742188 C136.975261,64.1236982 137,64.1822913 137,64.25 C137,64.2708334 137.002604,64.3229163 137.007812,64.40625 C137.013021,64.4895837 137.014323,64.5585935 137.011719,64.6132812 C137.009115,64.667969 137.001302,64.7291663 136.988281,64.796875 C136.97526,64.8645837 136.949219,64.9153644 136.910156,64.9492188 C136.871094,64.9830731 136.817709,65 136.75,65 L134.25,65 C133.906248,65 133.61198,65.1223946 133.367188,65.3671875 C133.122395,65.6119804 133,65.9062483 133,66.25 L133,71.75 C133,72.0937517 133.122395,72.3880196 133.367188,72.6328125 C133.61198,72.8776054 133.906248,73 134.25,73 L136.6875,73 C136.703125,73 136.733073,73.0026041 136.777344,73.0078125 C136.821615,73.0130209 136.851562,73.0208333 136.867188,73.03125 C136.882813,73.0416667 136.903646,73.0559895 136.929688,73.0742188 C136.955729,73.092448 136.973958,73.1158853 136.984375,73.1445312 C136.994792,73.1731772 137,73.2083331 137,73.25 Z M144.101562,68.6484375 C144.200521,68.7473963 144.25,68.8645827 144.25,69 C144.25,69.1354173 144.200521,69.2526037 144.101562,69.3515625 L139.851562,73.6015625 C139.752604,73.7005213 139.635417,73.75 139.5,73.75 C139.364583,73.75 139.247396,73.7005213 139.148438,73.6015625 C139.049479,73.5026037 139,73.3854173 139,73.25 L139,71 L135.5,71 C135.364583,71 135.247396,70.9505213 135.148438,70.8515625 C135.049479,70.7526037 135,70.6354173 135,70.5 L135,67.5 C135,67.3645827 135.049479,67.2473963 135.148438,67.1484375 C135.247396,67.0494787 135.364583,67 135.5,67 L139,67 L139,64.75 C139,64.6145827 139.049479,64.4973963 139.148438,64.3984375 C139.247396,64.2994787 139.364583,64.25 139.5,64.25 C139.635417,64.25 139.752604,64.2994787 139.851562,64.3984375 L144.101562,68.6484375 Z" id=""></path>
                </g>
            </g>
        </g>
    </g>
</svg>