<?xml version="1.0" encoding="UTF-8"?>
<svg width="11px" height="3px" viewBox="0 0 11 3" version="1.1" xmlns="http://www.w3.org/2000/svg" xmlns:xlink="http://www.w3.org/1999/xlink">
    <!-- Generator: Sketch 47.1 (45422) - http://www.bohemiancoding.com/sketch -->
    <title></title>
    <desc>Created with Sketch.</desc>
    <defs></defs>
    <g id="Pages" stroke="none" stroke-width="1" fill="none" fill-rule="evenodd">
        <g id="Product-Listing-(category)" transform="translate(-297.000000, -1009.000000)" fill="#4A4A4A">
            <g id="filter" transform="translate(55.000000, 906.000000)">
                <g id="categories-V2">
                    <g id="dresses_active" transform="translate(2.000000, 90.000000)">
                        <path d="M251,13.75 L251,15.25 C251,15.4583344 250.927084,15.6354159 250.78125,15.78125 C250.635416,15.9270841 250.458334,16 250.25,16 L240.75,16 C240.541666,16 240.364584,15.9270841 240.21875,15.78125 C240.072916,15.6354159 240,15.4583344 240,15.25 L240,13.75 C240,13.5416656 240.072916,13.3645841 240.21875,13.21875 C240.364584,13.0729159 240.541666,13 240.75,13 L250.25,13 C250.458334,13 250.635416,13.0729159 250.78125,13.21875 C250.927084,13.3645841 251,13.5416656 251,13.75 Z" id="" transform="translate(245.500000, 14.500000) rotate(-360.000000) translate(-245.500000, -14.500000) "></path>
                    </g>
                </g>
            </g>
        </g>
    </g>
</svg>