<?xml version="1.0" encoding="UTF-8"?>
<svg width="13px" height="13px" viewBox="0 0 13 13" version="1.1" xmlns="http://www.w3.org/2000/svg" xmlns:xlink="http://www.w3.org/1999/xlink">
    <!-- Generator: Sketch 47.1 (45422) - http://www.bohemiancoding.com/sketch -->
    <title></title>
    <desc>Created with Sketch.</desc>
    <defs></defs>
    <g id="Pages" stroke="none" stroke-width="1" fill="none" fill-rule="evenodd">
        <g id="Track-Order-V1" transform="translate(-885.000000, -524.000000)" fill="#000000">
            <g id="text-block-2" transform="translate(855.000000, 332.000000)">
                <path d="M42.5714286,202.357143 C42.5714286,202.517858 42.541667,202.727677 42.4821429,202.986607 C42.4226187,203.245537 42.3601194,203.449404 42.2946429,203.598214 C42.1696422,203.895835 41.8065506,204.211308 41.2053571,204.544643 C40.6458305,204.848216 40.0922646,205 39.5446429,205 C39.3839278,205 39.2261912,204.989583 39.0714286,204.96875 C38.9166659,204.947917 38.7455367,204.910715 38.5580357,204.857143 C38.3705348,204.803571 38.2306552,204.760417 38.1383929,204.727679 C38.0461305,204.69494 37.8809536,204.633929 37.6428571,204.544643 C37.4047607,204.455357 37.2589288,204.401786 37.2053571,204.383929 C36.6220209,204.175594 36.1011928,203.928573 35.6428571,203.642857 C34.886901,203.172617 34.1011946,202.529766 33.2857143,201.714286 C32.470234,200.898805 31.8273833,200.113099 31.3571429,199.357143 C31.0714271,198.898807 30.8244058,198.377979 30.6160714,197.794643 C30.5982142,197.741071 30.5446433,197.595239 30.4553571,197.357143 C30.366071,197.119046 30.3050597,196.95387 30.2723214,196.861607 C30.2395832,196.769345 30.1964288,196.629465 30.1428571,196.441964 C30.0892854,196.254463 30.0520834,196.083334 30.03125,195.928571 C30.0104166,195.773809 30,195.616072 30,195.455357 C30,194.907735 30.1517842,194.354169 30.4553571,193.794643 C30.7886921,193.193449 31.1041652,192.830358 31.4017857,192.705357 C31.550596,192.639881 31.754463,192.577381 32.0133929,192.517857 C32.2723227,192.458333 32.4821421,192.428571 32.6428571,192.428571 C32.7261909,192.428571 32.7886903,192.4375 32.8303571,192.455357 C32.9375005,192.491072 33.0952371,192.71726 33.3035714,193.133929 C33.3690479,193.247024 33.4583328,193.407737 33.5714286,193.616071 C33.6845244,193.824406 33.78869,194.013392 33.8839286,194.183036 C33.9791671,194.352679 34.0714281,194.511904 34.1607143,194.660714 C34.1785715,194.684524 34.2306543,194.758928 34.3169643,194.883929 C34.4032742,195.008929 34.4672617,195.114583 34.5089286,195.200893 C34.5505954,195.287203 34.5714286,195.372023 34.5714286,195.455357 C34.5714286,195.574405 34.486608,195.723213 34.3169643,195.901786 C34.1473206,196.080358 33.9627986,196.244047 33.7633929,196.392857 C33.5639871,196.541667 33.3794651,196.699404 33.2098214,196.866071 C33.0401777,197.032739 32.9553571,197.169642 32.9553571,197.276786 C32.9553571,197.330357 32.9702379,197.397321 33,197.477679 C33.0297621,197.558036 33.0550594,197.619047 33.0758929,197.660714 C33.0967263,197.702381 33.1383925,197.773809 33.2008929,197.875 C33.2633932,197.976191 33.297619,198.032738 33.3035714,198.044643 C33.7559546,198.860123 34.2738066,199.559521 34.8571429,200.142857 C35.4404791,200.726193 36.1398769,201.244045 36.9553571,201.696429 C36.967262,201.702381 37.023809,201.736607 37.125,201.799107 C37.226191,201.861607 37.2976188,201.903274 37.3392857,201.924107 C37.3809526,201.944941 37.4419639,201.970238 37.5223214,202 C37.602679,202.029762 37.6696426,202.044643 37.7232143,202.044643 C37.8303577,202.044643 37.9672611,201.959822 38.1339286,201.790179 C38.3005961,201.620535 38.4583326,201.436013 38.6071429,201.236607 C38.7559531,201.037201 38.919642,200.852679 39.0982143,200.683036 C39.2767866,200.513392 39.4255946,200.428571 39.5446429,200.428571 C39.6279766,200.428571 39.7127972,200.449405 39.7991071,200.491071 C39.8854171,200.532738 39.9910708,200.596726 40.1160714,200.683036 C40.2410721,200.769346 40.3154761,200.821428 40.3392857,200.839286 C40.488096,200.928572 40.6473206,201.020833 40.8169643,201.116071 C40.986608,201.21131 41.1755942,201.315476 41.3839286,201.428571 C41.5922629,201.541667 41.7529756,201.630952 41.8660714,201.696429 C42.2827402,201.904763 42.5089284,202.062499 42.5446429,202.169643 C42.5625001,202.21131 42.5714286,202.273809 42.5714286,202.357143 Z" id=""></path>
            </g>
        </g>
    </g>
</svg>