<?xml version="1.0" encoding="UTF-8"?>
<svg width="13px" height="18px" viewBox="0 0 13 18" version="1.1" xmlns="http://www.w3.org/2000/svg" xmlns:xlink="http://www.w3.org/1999/xlink">
    <!-- Generator: Sketch 47.1 (45422) - http://www.bohemiancoding.com/sketch -->
    <title></title>
    <desc>Created with Sketch.</desc>
    <defs>
        <linearGradient x1="0%" y1="0%" x2="100%" y2="100%" id="linearGradient-1">
            <stop stop-color="#FF8B95" offset="0%"></stop>
            <stop stop-color="#EE0024" offset="100%"></stop>
        </linearGradient>
    </defs>
    <g id="Symbols" stroke="none" stroke-width="1" fill="none" fill-rule="evenodd">
        <g id="footer" transform="translate(-662.000000, -236.000000)" fill="url(#linearGradient-1)">
            <g id="footer-copy">
                <g id="hover-icons" transform="translate(545.000000, 236.000000)">
                    <path d="M117.071429,6.56808036 C117.071429,5.84486246 117.196985,5.16350766 117.448103,4.52399554 C117.69922,3.88448341 118.045757,3.32701131 118.487723,2.8515625 C118.92969,2.37611369 119.438613,1.96428746 120.014509,1.61607143 C120.590405,1.2678554 121.209818,1.0066973 121.872768,0.832589286 C122.535718,0.658481272 123.21205,0.571428571 123.901786,0.571428571 C124.959827,0.571428571 125.944192,0.794082595 126.854911,1.23939732 C127.76563,1.68471205 128.505578,2.33258503 129.074777,3.18303571 C129.643976,4.0334864 129.928571,4.99441429 129.928571,6.06584821 C129.928571,6.70870857 129.864956,7.33816656 129.737723,7.95424107 C129.61049,8.57031558 129.4096,9.16294358 129.135045,9.73214286 C128.86049,10.3013421 128.525672,10.8018952 128.13058,11.233817 C127.735489,11.6657388 127.250003,12.0106014 126.674107,12.2684152 C126.098211,12.526229 125.465405,12.6551339 124.77567,12.6551339 C124.32031,12.6551339 123.868306,12.5479921 123.419643,12.3337054 C122.97098,12.1194186 122.649555,11.8247787 122.455357,11.4497768 C122.388393,11.7109388 122.294643,12.0876091 122.174107,12.5797991 C122.053571,13.0719891 121.974889,13.3900662 121.938058,13.5340402 C121.901227,13.6780141 121.83259,13.9157349 121.732143,14.2472098 C121.631696,14.5786847 121.544643,14.8164055 121.470982,14.9603795 C121.397321,15.1043534 121.290179,15.3136147 121.149554,15.5881696 C121.008928,15.8627246 120.854912,16.1222086 120.6875,16.3666295 C120.520088,16.6110503 120.312501,16.900668 120.064732,17.2354911 L119.924107,17.2857143 L119.833705,17.1852679 C119.733258,16.1339233 119.683036,15.5044653 119.683036,15.296875 C119.683036,14.6808005 119.755022,13.9894012 119.898996,13.2226563 C120.042969,12.4559113 120.265623,11.4933094 120.566964,10.3348214 C120.868305,9.17633349 121.04241,8.49665279 121.089286,8.29575893 C120.874999,7.8604889 120.767857,7.29464634 120.767857,6.59821429 C120.767857,6.04240794 120.941963,5.52009173 121.290179,5.03125 C121.638395,4.54240827 122.080354,4.29799107 122.616071,4.29799107 C123.024556,4.29799107 123.342633,4.43359239 123.570312,4.70479911 C123.797992,4.97600582 123.91183,5.31919435 123.91183,5.734375 C123.91183,6.1763415 123.76451,6.81584403 123.469866,7.65290179 C123.175222,8.48995954 123.027902,9.11606935 123.027902,9.53125 C123.027902,9.95312711 123.17857,10.303012 123.479911,10.5809152 C123.781252,10.8588184 124.146203,10.9977679 124.574777,10.9977679 C124.943082,10.9977679 125.284597,10.9140633 125.59933,10.7466518 C125.914064,10.5792402 126.176896,10.3515639 126.387835,10.0636161 C126.598773,9.7756682 126.786272,9.45759103 126.950335,9.109375 C127.114398,8.76115897 127.241629,8.39118499 127.332031,7.99944196 C127.422433,7.60769893 127.489397,7.23605086 127.532924,6.88448661 C127.576451,6.53292235 127.598214,6.19977836 127.598214,5.88504464 C127.598214,4.72655671 127.231588,3.82422198 126.498326,3.17801339 C125.765063,2.5318048 124.809158,2.20870536 123.63058,2.20870536 C122.291288,2.20870536 121.172996,2.64229477 120.27567,3.50948661 C119.378344,4.37667844 118.929687,5.47655584 118.929687,6.80915179 C118.929687,7.10379612 118.97154,7.38839148 119.055246,7.66294643 C119.138951,7.93750137 119.229352,8.15513313 119.326451,8.31584821 C119.42355,8.4765633 119.51395,8.62890553 119.597656,8.77287946 C119.681362,8.9168534 119.723214,9.01897291 119.723214,9.07924107 C119.723214,9.26674201 119.672992,9.51115921 119.572545,9.8125 C119.472098,10.1138408 119.348215,10.2645089 119.200893,10.2645089 C119.1875,10.2645089 119.130581,10.2544644 119.030134,10.234375 C118.688614,10.1339281 118.385604,9.94642994 118.121094,9.671875 C117.856583,9.39732006 117.652344,9.08091697 117.508371,8.72265625 C117.364397,8.36439553 117.255581,8.002792 117.18192,7.63783482 C117.108259,7.27287764 117.071429,6.91629638 117.071429,6.56808036 Z" id=""></path>
                </g>
            </g>
        </g>
    </g>
</svg>