<?xml version="1.0" encoding="UTF-8"?>
<svg width="11px" height="11px" viewBox="0 0 11 11" version="1.1" xmlns="http://www.w3.org/2000/svg" xmlns:xlink="http://www.w3.org/1999/xlink">
    <!-- Generator: Sketch 47.1 (45422) - http://www.bohemiancoding.com/sketch -->
    <title></title>
    <desc>Created with Sketch.</desc>
    <defs></defs>
    <g id="Pages" stroke="none" stroke-width="1" fill="none" fill-rule="evenodd">
        <g id="Product-Listing-(category)" transform="translate(-297.000000, -1211.000000)" fill="#4A4A4A">
            <g id="filter" transform="translate(55.000000, 906.000000)">
                <g id="categories-V2">
                    <path d="M253,309.75 L253,311.25 C253,311.458334 252.927084,311.635416 252.78125,311.78125 C252.635416,311.927084 252.458334,312 252.25,312 L249,312 L249,315.25 C249,315.458334 248.927084,315.635416 248.78125,315.78125 C248.635416,315.927084 248.458334,316 248.25,316 L246.75,316 C246.541666,316 246.364584,315.927084 246.21875,315.78125 C246.072916,315.635416 246,315.458334 246,315.25 L246,312 L242.75,312 C242.541666,312 242.364584,311.927084 242.21875,311.78125 C242.072916,311.635416 242,311.458334 242,311.25 L242,309.75 C242,309.541666 242.072916,309.364584 242.21875,309.21875 C242.364584,309.072916 242.541666,309 242.75,309 L246,309 L246,305.75 C246,305.541666 246.072916,305.364584 246.21875,305.21875 C246.364584,305.072916 246.541666,305 246.75,305 L248.25,305 C248.458334,305 248.635416,305.072916 248.78125,305.21875 C248.927084,305.364584 249,305.541666 249,305.75 L249,309 L252.25,309 C252.458334,309 252.635416,309.072916 252.78125,309.21875 C252.927084,309.364584 253,309.541666 253,309.75 Z" id="" transform="translate(247.500000, 310.500000) rotate(-90.000000) translate(-247.500000, -310.500000) "></path>
                </g>
            </g>
        </g>
    </g>
</svg>