<?xml version="1.0" encoding="UTF-8"?>
<svg width="28px" height="24px" viewBox="0 0 28 24" version="1.1" xmlns="http://www.w3.org/2000/svg" xmlns:xlink="http://www.w3.org/1999/xlink">
    <!-- Generator: Sketch 47.1 (45422) - http://www.bohemiancoding.com/sketch -->
    <title></title>
    <desc>Created with Sketch.</desc>
    <defs></defs>
    <g id="Pages" stroke="none" stroke-width="1" fill="none" fill-rule="evenodd">
        <g id="Blog-(details)" transform="translate(-755.000000, -951.000000)" fill="#FFFFFF">
            <g id="article" transform="translate(0.000000, 778.000000)">
                <path d="M767.928571,187.357143 L767.928571,193.785714 C767.928571,194.678576 767.616075,195.437497 766.991071,196.0625 C766.366068,196.687503 765.607147,197 764.714286,197 L758.285714,197 C757.392853,197 756.633932,196.687503 756.008929,196.0625 C755.383925,195.437497 755.071429,194.678576 755.071429,193.785714 L755.071429,182 C755.071429,180.83928 755.297431,179.73159 755.749442,178.676897 C756.201453,177.622205 756.812496,176.709825 757.582589,175.939732 C758.352682,175.169639 759.265062,174.558596 760.319754,174.106585 C761.374447,173.654574 762.482137,173.428571 763.642857,173.428571 L764.714286,173.428571 C765.004466,173.428571 765.255579,173.534597 765.467634,173.746652 C765.679689,173.958706 765.785714,174.20982 765.785714,174.5 L765.785714,176.642857 C765.785714,176.933037 765.679689,177.184151 765.467634,177.396205 C765.255579,177.60826 765.004466,177.714286 764.714286,177.714286 L763.642857,177.714286 C762.459816,177.714286 761.449781,178.132808 760.612723,178.969866 C759.775665,179.806924 759.357143,180.816958 759.357143,182 L759.357143,182.535714 C759.357143,182.982145 759.513391,183.361606 759.825893,183.674107 C760.138394,183.986609 760.517855,184.142857 760.964286,184.142857 L764.714286,184.142857 C765.607147,184.142857 766.366068,184.455354 766.991071,185.080357 C767.616075,185.70536 767.928571,186.464281 767.928571,187.357143 Z M782.928571,187.357143 L782.928571,193.785714 C782.928571,194.678576 782.616075,195.437497 781.991071,196.0625 C781.366068,196.687503 780.607147,197 779.714286,197 L773.285714,197 C772.392853,197 771.633932,196.687503 771.008929,196.0625 C770.383925,195.437497 770.071429,194.678576 770.071429,193.785714 L770.071429,182 C770.071429,180.83928 770.297431,179.73159 770.749442,178.676897 C771.201453,177.622205 771.812496,176.709825 772.582589,175.939732 C773.352682,175.169639 774.265062,174.558596 775.319754,174.106585 C776.374447,173.654574 777.482137,173.428571 778.642857,173.428571 L779.714286,173.428571 C780.004466,173.428571 780.255579,173.534597 780.467634,173.746652 C780.679689,173.958706 780.785714,174.20982 780.785714,174.5 L780.785714,176.642857 C780.785714,176.933037 780.679689,177.184151 780.467634,177.396205 C780.255579,177.60826 780.004466,177.714286 779.714286,177.714286 L778.642857,177.714286 C777.459816,177.714286 776.449781,178.132808 775.612723,178.969866 C774.775665,179.806924 774.357143,180.816958 774.357143,182 L774.357143,182.535714 C774.357143,182.982145 774.513391,183.361606 774.825893,183.674107 C775.138394,183.986609 775.517855,184.142857 775.964286,184.142857 L779.714286,184.142857 C780.607147,184.142857 781.366068,184.455354 781.991071,185.080357 C782.616075,185.70536 782.928571,186.464281 782.928571,187.357143 Z" id=""></path>
            </g>
        </g>
    </g>
</svg>