<?xml version="1.0" standalone="no"?>
<!DOCTYPE svg PUBLIC "-//W3C//DTD SVG 20010904//EN"
 "http://www.w3.org/TR/2001/REC-SVG-20010904/DTD/svg10.dtd">
<svg version="1.0" xmlns="http://www.w3.org/2000/svg"
 width="260.000000pt" height="260.000000pt" viewBox="0 0 260.000000 260.000000"
 preserveAspectRatio="xMidYMid meet">
<metadata>
Created by potrace 1.11, written by Peter Selinger 2001-2013
</metadata>
<g transform="translate(0.000000,260.000000) scale(0.100000,-0.100000)"
fill="#000000" stroke="none">
<path d="M1095 2586 c-190 -37 -352 -152 -436 -311 -49 -93 -63 -158 -63 -300
0 -116 3 -138 28 -210 76 -220 195 -328 656 -599 222 -130 192 -111 300 -193
190 -144 253 -275 225 -473 -21 -151 -132 -298 -279 -369 -83 -40 -118 -46
-246 -45 -156 2 -300 45 -435 132 -75 48 -184 153 -235 227 -17 25 -34 45 -38
45 -4 0 -15 -9 -24 -19 -15 -18 -13 -23 36 -83 135 -164 355 -309 545 -360
112 -30 306 -30 420 1 288 76 469 274 516 566 13 77 13 208 0 270 -34 171
-131 313 -290 424 -85 60 -274 181 -281 181 -3 0 -30 16 -60 35 -30 19 -57 35
-60 35 -4 0 -77 47 -163 104 -274 182 -366 297 -376 466 -11 179 111 356 277
400 95 26 257 11 369 -34 116 -47 245 -142 293 -218 17 -27 19 -27 41 -10 l23
17 -40 48 c-83 98 -150 156 -226 195 -43 21 -88 42 -102 46 -109 30 -145 37
-220 41 -50 2 -114 -1 -155 -9z"/>
</g>
</svg>
