<?xml version="1.0" encoding="UTF-8"?>
<svg width="10px" height="9px" viewBox="0 0 10 9" version="1.1" xmlns="http://www.w3.org/2000/svg" xmlns:xlink="http://www.w3.org/1999/xlink">
    <!-- Generator: Sketch 47.1 (45422) - http://www.bohemiancoding.com/sketch -->
    <title>cart</title>
    <desc>Created with Sketch.</desc>
    <defs></defs>
    <g id="Symbols" stroke="none" stroke-width="1" fill="none" fill-rule="evenodd">
        <g id="item_hover" transform="translate(-158.000000, -379.000000)" fill="#FFFFFF">
            <g id="Group-8">
                <g transform="translate(158.000000, 370.000000)">
                    <path d="M9.28571429,11.7544643 C9.28571429,11.4531235 9.24572213,11.1871291 9.16573661,10.9564732 C9.08575109,10.7258173 8.98344556,10.5425974 8.85881696,10.406808 C8.73418836,10.2710187 8.58259018,10.1603427 8.40401786,10.0747768 C8.22544554,9.98921088 8.05059609,9.93154777 7.87946429,9.90178571 C7.70833248,9.87202366 7.52604263,9.85714286 7.33258929,9.85714286 C7.13913594,9.85714286 6.93080469,9.90457542 6.70758929,9.99944196 C6.48437388,10.0943085 6.27883278,10.2133549 6.09095982,10.3565848 C5.90308686,10.4998147 5.74218817,10.6337419 5.60825893,10.7583705 C5.47432969,10.8829991 5.36272366,10.9973953 5.2734375,11.1015625 C5.20647288,11.1834081 5.11532796,11.2243304 5,11.2243304 C4.88467204,11.2243304 4.79352712,11.1834081 4.7265625,11.1015625 C4.63727634,10.9973953 4.52567031,10.8829991 4.39174107,10.7583705 C4.25781183,10.6337419 4.09691314,10.4998147 3.90904018,10.3565848 C3.72116722,10.2133549 3.51562612,10.0943085 3.29241071,9.99944196 C3.06919531,9.90457542 2.86086406,9.85714286 2.66741071,9.85714286 C2.47395737,9.85714286 2.29166752,9.87202366 2.12053571,9.90178571 C1.94940391,9.93154777 1.77455446,9.98921088 1.59598214,10.0747768 C1.41740982,10.1603427 1.26581164,10.2710187 1.14118304,10.406808 C1.01655444,10.5425974 0.914248912,10.7258173 0.834263393,10.9564732 C0.754277874,11.1871291 0.714285714,11.4531235 0.714285714,11.7544643 C0.714285714,12.3794674 1.0621245,13.0398031 1.7578125,13.7354911 L5,16.8604911 L8.23660714,13.7410714 C8.9360154,13.0416632 9.28571429,12.3794674 9.28571429,11.7544643 Z M10,11.7544643 C10,12.576641 9.574037,13.4136862 8.72209821,14.265625 L5.24553571,17.6138393 C5.17857109,17.6808039 5.09672667,17.7142857 5,17.7142857 C4.90327333,17.7142857 4.82142891,17.6808039 4.75446429,17.6138393 L1.27232143,14.2544643 C1.23511886,14.2247022 1.1839661,14.1763396 1.11886161,14.109375 C1.05375711,14.0424104 0.95052154,13.9205738 0.809151786,13.7438616 C0.667782031,13.5671494 0.541295201,13.3857896 0.4296875,13.1997768 C0.318079799,13.013764 0.218564425,12.7886918 0.131138393,12.5245536 C0.0437123605,12.2604153 -2.84217094e-13,12.0037215 -2.84217094e-13,11.7544643 C-2.84217094e-13,10.9360078 0.236232757,10.2961333 0.708705357,9.83482143 C1.18117796,9.3735096 1.83407321,9.14285714 2.66741071,9.14285714 C2.89806663,9.14285714 3.13336934,9.1828493 3.37332589,9.26283482 C3.61328245,9.34282034 3.8364945,9.45070617 4.04296875,9.58649554 C4.249443,9.72228491 4.42708259,9.84970179 4.57589286,9.96875 C4.72470312,10.0877982 4.86607076,10.214285 5,10.3482143 C5.13392924,10.214285 5.27529687,10.0877982 5.42410714,9.96875 C5.57291741,9.84970179 5.750557,9.72228491 5.95703125,9.58649554 C6.1635055,9.45070617 6.38671755,9.34282034 6.62667411,9.26283482 C6.86663066,9.1828493 7.10193337,9.14285714 7.33258929,9.14285714 C8.16592679,9.14285714 8.81882204,9.3735096 9.29129464,9.83482143 C9.76376724,10.2961333 10,10.9360078 10,11.7544643 Z" id="cart"></path>
                </g>
            </g>
        </g>
    </g>
</svg>