<?xml version="1.0" encoding="UTF-8"?>
<svg width="15px" height="16px" viewBox="0 0 15 16" version="1.1" xmlns="http://www.w3.org/2000/svg" xmlns:xlink="http://www.w3.org/1999/xlink">
    <!-- Generator: Sketch 47.1 (45422) - http://www.bohemiancoding.com/sketch -->
    <title></title>
    <desc>Created with Sketch.</desc>
    <defs></defs>
    <g id="Pages" stroke="none" stroke-width="1" fill="none" fill-rule="evenodd">
        <g id="Homepage" transform="translate(-956.000000, -66.000000)" fill="#4A4A4A">
            <g id="first-screen">
                <g id="header-copy">
                    <path d="M965.107143,75.5446429 C965.892861,74.7589246 966.285714,73.8154817 966.285714,72.7142857 C966.285714,71.6130897 965.894349,70.6711349 965.111607,69.8883929 C964.328865,69.1056508 963.38691,68.7142857 962.285714,68.7142857 C961.184518,68.7142857 960.242563,69.1056508 959.459821,69.8883929 C958.677079,70.6711349 958.285714,71.6130897 958.285714,72.7142857 C958.285714,73.8154817 958.677079,74.7574366 959.459821,75.5401786 C960.242563,76.3229206 961.184518,76.7142857 962.285714,76.7142857 C963.38691,76.7142857 964.327377,76.3244087 965.107143,75.5446429 Z M970.857143,80.1428571 C970.857143,80.4523825 970.744049,80.720237 970.517857,80.9464286 C970.291666,81.1726202 970.023811,81.2857143 969.714286,81.2857143 C969.392856,81.2857143 969.125001,81.1726202 968.910714,80.9464286 L965.848214,77.8928571 C964.782733,78.6309561 963.595245,79 962.285714,79 C961.43452,79 960.62054,78.8348231 959.84375,78.5044643 C959.06696,78.1741055 958.397324,77.7276814 957.834821,77.1651786 C957.272319,76.6026758 956.825895,75.9330396 956.495536,75.15625 C956.165177,74.3794604 956,73.5654804 956,72.7142857 C956,71.863091 956.165177,71.049111 956.495536,70.2723214 C956.825895,69.4955318 957.272319,68.8258957 957.834821,68.2633929 C958.397324,67.70089 959.06696,67.2544659 959.84375,66.9241071 C960.62054,66.5937483 961.43452,66.4285714 962.285714,66.4285714 C963.136909,66.4285714 963.950889,66.5937483 964.727679,66.9241071 C965.504468,67.2544659 966.174104,67.70089 966.736607,68.2633929 C967.29911,68.8258957 967.745534,69.4955318 968.075893,70.2723214 C968.406252,71.049111 968.571429,71.863091 968.571429,72.7142857 C968.571429,74.0238161 968.202385,75.2113042 967.464286,76.2767857 L970.526786,79.3392857 C970.747025,79.5595249 970.857143,79.8273794 970.857143,80.1428571 Z" id=""></path>
                </g>
            </g>
        </g>
    </g>
</svg>