<?xml version="1.0" encoding="UTF-8"?>
<svg width="17px" height="13px" viewBox="0 0 17 13" version="1.1" xmlns="http://www.w3.org/2000/svg" xmlns:xlink="http://www.w3.org/1999/xlink">
    <!-- Generator: Sketch 47.1 (45422) - http://www.bohemiancoding.com/sketch -->
    <title></title>
    <desc>Created with Sketch.</desc>
    <defs>
        <linearGradient x1="100%" y1="100%" x2="13.6576065%" y2="0%" id="linearGradient-1">
            <stop stop-color="#2783E7" offset="0%"></stop>
            <stop stop-color="#3998FF" offset="100%"></stop>
        </linearGradient>
    </defs>
    <g id="Symbols" stroke="none" stroke-width="1" fill="none" fill-rule="evenodd">
        <g id="footer" transform="translate(-600.000000, -239.000000)" fill="url(#linearGradient-1)">
            <g id="footer-copy">
                <g id="hover-icons" transform="translate(545.000000, 236.000000)">
                    <path d="M71.4151786,4.66964286 C70.9665156,5.32589614 70.4241103,5.88504233 69.7879464,6.34709821 C69.7946429,6.44084868 69.7979911,6.58147228 69.7979911,6.76897321 C69.7979911,7.63951328 69.6707602,8.5083662 69.4162946,9.37555804 C69.1618291,10.2427499 68.7751142,11.0747728 68.2561384,11.8716518 C67.7371626,12.6685308 67.1194232,13.3733228 66.4029018,13.9860491 C65.6863803,14.5987754 64.8225497,15.0876098 63.8113839,15.452567 C62.8002182,15.8175241 61.7187558,16 60.5669643,16 C58.7522231,16 57.0915254,15.5145138 55.5848214,14.5435268 C55.8191976,14.5703126 56.0803557,14.5837054 56.3683036,14.5837054 C57.8750075,14.5837054 59.217628,14.1216564 60.3962054,13.1975446 C59.6930768,13.1841517 59.0636189,12.9681941 58.5078125,12.5496652 C57.9520061,12.1311363 57.5703135,11.5971015 57.3627232,10.9475446 C57.5837065,10.981027 57.7879455,10.9977679 57.9754464,10.9977679 C58.2633943,10.9977679 58.5479897,10.9609379 58.8292411,10.8872768 C58.0792373,10.7332582 57.4581498,10.359936 56.9659598,9.76729911 C56.4737699,9.17466222 56.2276786,8.48661106 56.2276786,7.703125 L56.2276786,7.66294643 C56.683038,7.91741199 57.1718724,8.0546874 57.6941964,8.07477679 C57.2522299,7.78013246 56.9006709,7.39509166 56.6395089,6.91964286 C56.3783469,6.44419405 56.2477679,5.92857421 56.2477679,5.37276786 C56.2477679,4.7834792 56.3950878,4.23772573 56.6897321,3.73549107 C57.5000041,4.73326392 58.4860433,5.53180504 59.6478795,6.13113839 C60.8097156,6.73047175 62.0535648,7.06361574 63.3794643,7.13058036 C63.3258926,6.8761148 63.2991071,6.62834942 63.2991071,6.38727679 C63.2991071,5.48995087 63.6155102,4.72489156 64.2483259,4.09207589 C64.8811416,3.45926023 65.6462009,3.14285714 66.5435268,3.14285714 C67.4810315,3.14285714 68.2712021,3.48437158 68.9140625,4.16741071 C69.6439769,4.02678501 70.3303539,3.76562691 70.9732143,3.38392857 C70.7254452,4.15402171 70.2500035,4.74999789 69.546875,5.171875 C70.169646,5.10491038 70.7924076,4.93750134 71.4151786,4.66964286 Z" id=""></path>
                </g>
            </g>
        </g>
    </g>
</svg>