<?xml version="1.0" encoding="UTF-8"?>
<svg width="12px" height="8px" viewBox="0 0 12 8" version="1.1" xmlns="http://www.w3.org/2000/svg" xmlns:xlink="http://www.w3.org/1999/xlink">
    <!-- Generator: Sketch 47.1 (45422) - http://www.bohemiancoding.com/sketch -->
    <title>cart copy</title>
    <desc>Created with Sketch.</desc>
    <defs></defs>
    <g id="Symbols" stroke="none" stroke-width="1" fill="none" fill-rule="evenodd">
        <g id="item_hover" transform="translate(-21.000000, -379.000000)" fill="#FFFFFF">
            <g id="Group-9">
                <g transform="translate(21.000000, 370.000000)">
                    <path d="M11.1428571,13.1428571 C10.4642823,12.0892804 9.6138444,11.3013419 8.59151786,10.7790179 C8.86384065,11.2433059 9,11.745533 9,12.2857143 C9,13.1116113 8.70647615,13.8180774 8.11941964,14.4051339 C7.53236314,14.9921904 6.82589699,15.2857143 6,15.2857143 C5.17410301,15.2857143 4.46763686,14.9921904 3.88058036,14.4051339 C3.29352385,13.8180774 3,13.1116113 3,12.2857143 C3,11.745533 3.13615935,11.2433059 3.40848214,10.7790179 C2.3861556,11.3013419 1.53571768,12.0892804 0.857142857,13.1428571 C1.45089583,14.0580403 2.19530802,14.7868276 3.09040179,15.3292411 C3.98549555,15.8716545 4.95535192,16.1428571 6,16.1428571 C7.04464808,16.1428571 8.01450445,15.8716545 8.90959821,15.3292411 C9.80469198,14.7868276 10.5491042,14.0580403 11.1428571,13.1428571 Z M6.22767857,10.7991071 C6.29017888,10.7366068 6.32142857,10.6607147 6.32142857,10.5714286 C6.32142857,10.4821424 6.29017888,10.4062503 6.22767857,10.34375 C6.16517826,10.2812497 6.08928616,10.25 6,10.25 C5.4419615,10.25 4.96317164,10.4497748 4.56361607,10.8493304 C4.1640605,11.2488859 3.96428571,11.7276758 3.96428571,12.2857143 C3.96428571,12.3750004 3.9955354,12.4508925 4.05803571,12.5133929 C4.12053603,12.5758932 4.19642812,12.6071429 4.28571429,12.6071429 C4.37500045,12.6071429 4.45089254,12.5758932 4.51339286,12.5133929 C4.57589317,12.4508925 4.60714286,12.3750004 4.60714286,12.2857143 C4.60714286,11.9017838 4.74330221,11.5736621 5.015625,11.3013393 C5.28794779,11.0290165 5.61606951,10.8928571 6,10.8928571 C6.08928616,10.8928571 6.16517826,10.8616075 6.22767857,10.7991071 Z M11.8660714,12.6808036 C11.9553576,12.8370544 12,12.9910707 12,13.1428571 C12,13.2946436 11.9553576,13.4486599 11.8660714,13.6049107 C11.2410683,14.6317016 10.4006749,15.454238 9.34486607,16.0725446 C8.28905722,16.6908513 7.17411301,17 6,17 C4.82588699,17 3.71094278,16.6897352 2.65513393,16.0691964 C1.59932508,15.4486576 0.758931696,14.6272373 0.133928571,13.6049107 C0.0446424107,13.4486599 -5.68434189e-14,13.2946436 -5.68434189e-14,13.1428571 C-5.68434189e-14,12.9910707 0.0446424107,12.8370544 0.133928571,12.6808036 C0.758931696,11.658477 1.59932508,10.8370567 2.65513393,10.2165179 C3.71094278,9.59597904 4.82588699,9.28571429 6,9.28571429 C7.17411301,9.28571429 8.28905722,9.59597904 9.34486607,10.2165179 C10.4006749,10.8370567 11.2410683,11.658477 11.8660714,12.6808036 Z" id="cart-copy"></path>
                </g>
            </g>
        </g>
    </g>
</svg>